# xmcd
#
# Track frame offsets:
# 150
# 11818
# 23362
# 36385
# 44390
# 59421
# 76482
# 89343
# 103581
# 115513
# 148231
# 160460
#
# Disc length: 2315 seconds
#
#
# Revision: 0
# Processed by: cddbd v1.5.2PL0 Copyright (c) Steve Scherf et al.
# Submitted via: FreeRIP 2.951 
#
DISCID=9a09090c
DTITLE=Radio Formula - Musica Tropical
DYEAR=1900
DGENRE=Tropical
TTITLE0=Daniel santos - Obsesion
TTITLE1=Sonora matancera - Cuando sali de cuba
TTITLE2=Bienvenido granda - A la orilla del mar
TTITLE3=Perez prado - Mambo n 8
TTITLE4=Celia cruz - tu voz
TTITLE5=Orquesta aragon - El bodeguero
TTITLE6=Celio gonzalez - Humo
TTITLE7=Acerina - Nereidas
TTITLE8=Carlos argentino - ay cosita linda
TTITLE9=Pepe arevalo - Pedro Navajas
TTITLE10=Sonora matancera - Guantanamera
TTITLE11=Mariano merceron - La margarita
EXTD=
EXTT0=
EXTT1=
EXTT2=
EXTT3=
EXTT4=
EXTT5=
EXTT6=
EXTT7=
EXTT8=
EXTT9=
EXTT10=
EXTT11=
PLAYORDER=
